HIERARCHY
ROOT Hips
{
  OFFSET 5.84602e-005 68.8428 3.50346
  CHANNELS 6 Xposition Yposition Zposition Zrotation Xrotation Yrotation
  JOINT Spine
  {
    OFFSET 0 8.597 -4.6522
    CHANNELS 3 Zrotation Xrotation Yrotation
    JOINT Spine1
    {
      OFFSET 0 7.8454 0.4098
      CHANNELS 3 Zrotation Xrotation Yrotation
      JOINT Spine2
      {
        OFFSET 0 9.7078 -2.1609
        CHANNELS 3 Zrotation Xrotation Yrotation
        JOINT Neck
        {
          OFFSET 0 21.8761 -0.4549
          CHANNELS 3 Zrotation Xrotation Yrotation
          JOINT Head
          {
            OFFSET 0 12.3537 3.3602
            CHANNELS 3 Zrotation Xrotation Yrotation
            End Site
            {
              OFFSET 0.0001 18.9506 0.5657
            }
          }
        }
        JOINT LeftShoulder
        {
          OFFSET 2.2086 21.1115 7.2329
          CHANNELS 3 Zrotation Xrotation Yrotation
          JOINT LeftArm
          {
            OFFSET 13.1193 3.0282 -4.8998
            CHANNELS 3 Zrotation Xrotation Yrotation
            JOINT LeftForeArm
            {
              OFFSET 27.4081 -0.0973053 -0.2375
              CHANNELS 3 Zrotation Xrotation Yrotation
              JOINT LeftHand
              {
                OFFSET 22.8641 0.0662994 -0.1369
                CHANNELS 3 Zrotation Xrotation Yrotation
                JOINT LeftHandIndex1
                {
                  OFFSET 8.8614 0.775009 2.4612
                  CHANNELS 3 Zrotation Xrotation Yrotation
                  JOINT LeftHandIndex2
                  {
                    OFFSET 3.3146 -0.808304 0.5841
                    CHANNELS 3 Zrotation Xrotation Yrotation
                    JOINT LeftHandIndex3
                    {
                      OFFSET 2.2628 -0.552002 0.3989
                      CHANNELS 3 Zrotation Xrotation Yrotation
                      End Site
                      {
                        OFFSET 1.6102 -0.4807 0.2612
                      }
                    }
                  }
                }
                JOINT LeftHandMiddle1
                {
                  OFFSET 8.9937 0.895004 0.2143
                  CHANNELS 3 Zrotation Xrotation Yrotation
                  JOINT LeftHandMiddle2
                  {
                    OFFSET 4.0984 0.0113983 -0.0242
                    CHANNELS 3 Zrotation Xrotation Yrotation
                    JOINT LeftHandMiddle3
                    {
                      OFFSET 2.2716 0.00689697 -0.0138001
                      CHANNELS 3 Zrotation Xrotation Yrotation
                      End Site
                      {
                        OFFSET 2.0404 -0.1441 0.0027
                      }
                    }
                  }
                }
                JOINT LeftHandRing1
                {
                  OFFSET 8.5234 0.597198 -2.0164
                  CHANNELS 3 Zrotation Xrotation Yrotation
                  JOINT LeftHandRing2
                  {
                    OFFSET 3.7188 -0.188293 -0.2328
                    CHANNELS 3 Zrotation Xrotation Yrotation
                    JOINT LeftHandRing3
                    {
                      OFFSET 2.1191 -0.106598 -0.1332
                      CHANNELS 3 Zrotation Xrotation Yrotation
                      End Site
                      {
                        OFFSET 1.8737 -0.2304 -0.0886
                      }
                    }
                  }
                }
                JOINT LeftHandPinky1
                {
                  OFFSET 7.9094 -0.601089 -3.4825
                  CHANNELS 3 Zrotation Xrotation Yrotation
                  JOINT LeftHandPinky2
                  {
                    OFFSET 2.2874 -0.477005 -0.6314
                    CHANNELS 3 Zrotation Xrotation Yrotation
                    JOINT LeftHandPinky3
                    {
                      OFFSET 1.6774 -0.349396 -0.4633
                      CHANNELS 3 Zrotation Xrotation Yrotation
                      End Site
                      {
                        OFFSET 1.4888 -0.4091 -0.3416
                      }
                    }
                  }
                }
                JOINT LeftHandThumb1
                {
                  OFFSET 1.833 -1.3875 1.3896
                  CHANNELS 3 Zrotation Xrotation Yrotation
                  JOINT LeftHandThumb2
                  {
                    OFFSET 3.4129 -1.121 2.5732
                    CHANNELS 3 Zrotation Xrotation Yrotation
                    JOINT LeftHandThumb3
                    {
                      OFFSET 2.2474 -0.804199 1.6192
                      CHANNELS 3 Zrotation Xrotation Yrotation
                      End Site
                      {
                        OFFSET 1.6527 -0.5689 1.1317
                      }
                    }
                  }
                }
              }
            }
          }
        }
        JOINT RightShoulder
        {
          OFFSET -2.2086 21.1115 7.2329
          CHANNELS 3 Zrotation Xrotation Yrotation
          JOINT RightArm
          {
            OFFSET -13.1216 3.0287 -4.9007
            CHANNELS 3 Zrotation Xrotation Yrotation
            JOINT RightForeArm
            {
              OFFSET -27.4081 -0.0973053 -0.2375
              CHANNELS 3 Zrotation Xrotation Yrotation
              JOINT RightHand
              {
                OFFSET -22.8641 0.0664063 -0.1369
                CHANNELS 3 Zrotation Xrotation Yrotation
                JOINT RightHandIndex1
                {
                  OFFSET -8.8614 0.774994 2.4612
                  CHANNELS 3 Zrotation Xrotation Yrotation
                  JOINT RightHandIndex2
                  {
                    OFFSET -3.3146 -0.808304 0.5841
                    CHANNELS 3 Zrotation Xrotation Yrotation
                    JOINT RightHandIndex3
                    {
                      OFFSET -2.2628 -0.552002 0.3989
                      CHANNELS 3 Zrotation Xrotation Yrotation
                      End Site
                      {
                        OFFSET -1.6102 -0.4807 0.2612
                      }
                    }
                  }
                }
                JOINT RightHandMiddle1
                {
                  OFFSET -8.9937 0.894989 0.2143
                  CHANNELS 3 Zrotation Xrotation Yrotation
                  JOINT RightHandMiddle2
                  {
                    OFFSET -4.0984 0.0113983 -0.0242
                    CHANNELS 3 Zrotation Xrotation Yrotation
                    JOINT RightHandMiddle3
                    {
                      OFFSET -2.2716 0.00691223 -0.0138001
                      CHANNELS 3 Zrotation Xrotation Yrotation
                      End Site
                      {
                        OFFSET -2.0404 -0.1441 0.0027
                      }
                    }
                  }
                }
                JOINT RightHandRing1
                {
                  OFFSET -8.5234 0.597198 -2.0164
                  CHANNELS 3 Zrotation Xrotation Yrotation
                  JOINT RightHandRing2
                  {
                    OFFSET -3.7188 -0.188309 -0.2328
                    CHANNELS 3 Zrotation Xrotation Yrotation
                    JOINT RightHandRing3
                    {
                      OFFSET -2.1191 -0.106598 -0.1332
                      CHANNELS 3 Zrotation Xrotation Yrotation
                      End Site
                      {
                        OFFSET -1.8737 -0.2304 -0.0886
                      }
                    }
                  }
                }
                JOINT RightHandPinky1
                {
                  OFFSET -7.9094 -0.601105 -3.4825
                  CHANNELS 3 Zrotation Xrotation Yrotation
                  JOINT RightHandPinky2
                  {
                    OFFSET -2.2874 -0.477005 -0.6314
                    CHANNELS 3 Zrotation Xrotation Yrotation
                    JOINT RightHandPinky3
                    {
                      OFFSET -1.6774 -0.349396 -0.4633
                      CHANNELS 3 Zrotation Xrotation Yrotation
                      End Site
                      {
                        OFFSET -1.4888 -0.4091 -0.3416
                      }
                    }
                  }
                }
                JOINT RightHandThumb1
                {
                  OFFSET -1.833 -1.38751 1.3896
                  CHANNELS 3 Zrotation Xrotation Yrotation
                  JOINT RightHandThumb2
                  {
                    OFFSET -3.41299 -1.12099 2.5732
                    CHANNELS 3 Zrotation Xrotation Yrotation
                    JOINT RightHandThumb3
                    {
                      OFFSET -2.24741 -0.804108 1.6192
                      CHANNELS 3 Zrotation Xrotation Yrotation
                      End Site
                      {
                        OFFSET -1.6527 -0.5689 1.1317
                      }
                    }
                  }
                }
              }
            }
          }
        }
      }
    }
  }
  JOINT RightUpLeg
  {
    OFFSET -9.1966 3.8861 -0.7581
    CHANNELS 3 Zrotation Xrotation Yrotation
    JOINT RightLeg
    {
      OFFSET -0.7359 -41.0265 0
      CHANNELS 3 Zrotation Xrotation Yrotation
      JOINT RightFoot
      {
        OFFSET 0 -40.2855 0
        CHANNELS 3 Zrotation Xrotation Yrotation
        JOINT RightToeBase
        {
          OFFSET 0 -5.6122 11.7359
          CHANNELS 3 Zrotation Xrotation Yrotation
          End Site
          {
            OFFSET 0 0 7.8731
          }
        }
      }
    }
  }
  JOINT LeftUpLeg
  {
    OFFSET 9.1965 3.8864 -0.7581
    CHANNELS 3 Zrotation Xrotation Yrotation
    JOINT LeftLeg
    {
      OFFSET 0.7359 -41.0268 0
      CHANNELS 3 Zrotation Xrotation Yrotation
      JOINT LeftFoot
      {
        OFFSET 0 -40.2855 0
        CHANNELS 3 Zrotation Xrotation Yrotation
        JOINT LeftToeBase
        {
          OFFSET 0 -5.6122 11.7359
          CHANNELS 3 Zrotation Xrotation Yrotation
          End Site
          {
            OFFSET 0 0 7.8731
          }
        }
      }
    }
  }
}
MOTION
Frames:	4
Frame Time:	0.0333333
5.84602e-005 68.8428 3.50346 0 0 -0 0 0 -0 0 0 -0 0 0 -0 0 0 -0 0 0 -0 0 0 -0 0 0 -0 0 0 -0 0 0 -0 0 0 -0 0 0 -0 0 0 -0 0 0 -0 -0.0146107 -8.87603e-005 -2.63497e-007 2.99804e-018 -2.42657e-020 -1.42182e-022 0 0 -0 -0.0187562 -0.001176 5.858e-005 5.06224e-018 3.88251e-019 1.21329e-020 0 0 -0 -0.012269 -0.00324817 0.000675346 -1.74678e-018 3.88251e-019 -0 0 0 -0 0 0 -0 0 0 -0 0 0 -0 0 0 -0 0 0 -0 0 0 -0 0 0 -0 0 0 -0 0 0 -0 0 0 -0 0.0149955 -9.10982e-005 2.64101e-007 -9.69331e-018 1.21329e-020 -4.7394e-023 0 0 -0 0.0189956 -0.00119102 -5.96516e-005 -5.41541e-019 0 2.42657e-020 0 0 -0 0.0122698 -0.00324857 -0.000673756 -2.00796e-019 0 -1.94126e-019 0 0 -0 0 0 -0 0 0 -0 3.39842 1.33031 -0.0637918 -5.65207e-008 0.834868 -0.000436188 -3.39935 -2.16518 -0.0642563 -8.89002e-024 -1.18485e-023 -1.48106e-024 -3.39844 1.35642 0.0640283 -3.18788e-007 0.782166 -0.000588827 3.39931 -2.13858 0.0634662 1.1399e-023 0 -0 
-32.3906 47.2259 32.2199 -0.0273522 -66.6681 -0.0208114 -0.189227 3.11633 -0.282969 -0.363822 6.23367 -0.55685 -0.363822 6.2337 -0.556849 -1.75116e-005 -10.3562 2.39311e-006 -6.40945e-008 -12.6732 -1.0811e-008 10.9665 -28.1617 -5.38066 -59.5658 -22.7708 -45.8936 -8.75143 0.941803 -83.809 -17.0167 -13.9178 -9.14583 -5.8933e-007 7.49512e-007 1.40718e-006 -8.83995e-007 1.12427e-006 2.11076e-006 -5.8933e-007 7.49512e-007 1.40718e-006 -5.8933e-007 7.49512e-007 1.40718e-006 -0.0145935 -8.65834e-005 2.03725e-006 -5.8935e-007 7.49332e-007 1.40727e-006 -5.8933e-007 7.49512e-007 1.40718e-006 -0.0187463 -0.00117398 6.2539e-005 -5.89342e-007 7.4928e-007 1.4073e-006 -5.8933e-007 7.49512e-007 1.40718e-006 -0.0122699 -0.00324408 0.000675023 -5.89303e-007 7.4936e-007 1.40727e-006 -5.8933e-007 7.49512e-007 1.40718e-006 -8.83995e-007 1.12427e-006 2.11076e-006 -5.8933e-007 7.49512e-007 1.40718e-006 -10.9861 -28.162 5.37188 55.6517 -21.0874 41.8612 8.83741 1.01146 83.789 10.6255 -15.1786 7.07656 -1.59267e-007 -2.75511e-006 -1.64499e-006 1.17247e-006 4.19448e-006 -7.65732e-007 -5.93499e-007 -3.37199e-006 -6.11825e-007 -1.59267e-007 -2.75511e-006 -1.64499e-006 0.0150007 -8.70838e-005 -6.43925e-007 -5.93355e-007 -3.37207e-006 -6.11383e-007 -1.59267e-007 -2.75511e-006 -1.64499e-006 0.01902 -0.00118505 -5.76479e-005 -5.93321e-007 -3.3721e-006 -6.1126e-007 -1.59267e-007 -2.75511e-006 -1.64499e-006 0.0123433 -0.00326223 -0.000679452 -5.93378e-007 -3.37209e-006 -6.11451e-007 -1.59267e-007 -2.75511e-006 -1.64499e-006 1.17247e-006 4.19448e-006 -7.65732e-007 -5.93499e-007 -3.37199e-006 -6.11825e-007 -7.94689 -25.0722 -7.8314 -6.47697 66.3679 5.47648 -1.36571 23.4722 -3.58855 1.06038e-007 1.18691e-008 -1.79387e-009 7.89162 -25.0626 7.78882 6.42948 66.3377 -5.38525 1.3932 23.0733 3.5614 -9.93923e-017 -3.97569e-016 3.18055e-015 
-46.9652 37.8317 42.1177 -179.91 -83.3313 -179.897 -0.245333 4.49752 -0.425223 -0.459191 8.9967 -0.834935 -0.459192 8.99669 -0.834935 -2.10923e-005 -15.139 1.75041e-006 -5.27173e-007 -18.0309 -5.82243e-007 13.5079 -40.5645 -9.21473 -95.8811 -20.5874 -68.0492 -14.4118 -6.51312 -120.805 -26.2984 -19.8361 -13.7834 -6.24096e-007 -2.62888e-006 1.68555e-006 -5.849e-006 -4.93584e-006 4.1065e-006 5.58507e-008 -4.04312e-007 1.86254e-006 -6.24096e-007 -2.62888e-006 1.68555e-006 -0.0145822 -9.50974e-005 3.70503e-007 3.89676e-007 5.51174e-007 5.19481e-007 -6.24096e-007 -2.62888e-006 1.68555e-006 -0.0187489 -0.00118181 6.16675e-005 3.89684e-007 5.51155e-007 5.19497e-007 -6.24096e-007 -2.62888e-006 1.68555e-006 -0.0122741 -0.00325183 0.000675531 3.89693e-007 5.51184e-007 5.19458e-007 -6.24096e-007 -2.62888e-006 1.68555e-006 -5.849e-006 -4.93584e-006 4.1065e-006 5.58507e-008 -4.04312e-007 1.86254e-006 -13.5474 -40.5677 9.19602 89.4136 -21.074 62.5249 14.6429 -6.94999 120.673 16.8136 -21.7688 10.7612 4.2868e-007 -5.31609e-007 5.02774e-007 2.1434e-006 -2.65804e-006 2.51387e-006 -8.57361e-007 1.06322e-006 -1.00555e-006 4.2868e-007 -5.31609e-007 5.02774e-007 0.0150259 -9.30321e-005 -2.04012e-006 -8.57388e-007 1.06309e-006 -1.00569e-006 4.2868e-007 -5.31609e-007 5.02774e-007 0.0189343 -0.00119339 -5.93499e-005 -8.57404e-007 1.06305e-006 -1.00571e-006 4.2868e-007 -5.31609e-007 5.02774e-007 0.0122524 -0.00323863 -0.000664365 -8.57417e-007 1.06311e-006 -1.00564e-006 4.2868e-007 -5.31609e-007 5.02774e-007 2.1434e-006 -2.65804e-006 2.51387e-006 -8.57361e-007 1.06322e-006 -1.00555e-006 -15.0417 -36.1457 -12.7634 -140.267 83.3852 137.427 1.34474 35.3785 -6.31175 -8.09248e-007 -3.3552e-007 4.06255e-008 14.8404 -36.1392 12.5519 140.398 83.4553 -137.511 -1.39956 34.7816 6.34317 -2.4903e-006 5.85717e-007 9.59891e-008 
-43.7264 40.0428 40.0693 -99.585 -89.9887 -99.5739 -0.233795 4.14542 -0.393376 -0.440699 8.29231 -0.772785 -0.440699 8.29231 -0.772785 -2.73509e-006 -14.3478 -4.34543e-006 -3.77812e-008 -16.073 1.19403e-008 12.8202 -37.6876 -8.5234 -87.9309 -21.7932 -63.7685 -12.6567 -4.55357 -112.616 -24.3606 -18.4161 -12.8984 3.31238e-008 -1.5704e-007 -2.30961e-007 3.18055e-015 -3.18055e-015 -1.59028e-015 -3.31238e-008 1.5704e-007 2.30961e-007 3.31238e-008 -1.5704e-007 -2.30961e-007 -0.0145708 -9.30332e-005 1.69142e-006 -3.18055e-015 -1.59028e-015 -1.59028e-015 3.31238e-008 -1.5704e-007 -2.30961e-007 -0.0187483 -0.00117489 6.07423e-005 -3.18055e-015 -1.59028e-015 -1.59028e-015 3.31238e-008 -1.5704e-007 -2.30961e-007 -0.0122404 -0.0032409 0.000671164 -1.32417e-030 7.95139e-015 9.54166e-015 3.31238e-008 -1.5704e-007 -2.30961e-007 3.18055e-015 -3.18055e-015 -1.59028e-015 -3.31238e-008 1.5704e-007 2.30961e-007 -12.8711 -37.695 8.49858 82.0919 -21.9463 58.3099 12.8237 -4.85691 112.514 15.5732 -20.2027 10.0986 -1.27222e-014 1.43125e-014 3.18055e-015 3.18055e-015 1.82882e-014 -3.18055e-015 1.45659e-030 1.74931e-014 -4.77083e-015 -1.27222e-014 1.43125e-014 3.18055e-015 0.0149843 -8.84354e-005 2.19736e-006 -3.18055e-015 7.15625e-015 -0 -1.27222e-014 1.43125e-014 3.18055e-015 0.0189675 -0.00118764 -6.02558e-005 3.18055e-015 7.95139e-016 -1.59028e-015 -1.27222e-014 1.43125e-014 3.18055e-015 0.0122465 -0.00324033 -0.000678262 3.18055e-015 -3.18055e-015 -1.59028e-015 -1.27222e-014 1.43125e-014 3.18055e-015 3.18055e-015 1.82882e-014 -3.18055e-015 1.45659e-030 1.74931e-014 -4.77083e-015 -12.999 -33.6624 -11.0798 -72.0777 85.8759 69.7386 1.0259 32.8619 -5.93328 -4.79885e-007 1.4558e-007 9.76579e-007 12.6196 -33.6702 10.6055 71.2889 85.9063 -68.9063 -1.36005 32.285 6.17913 8.88825e-007 6.29451e-007 -1.6631e-006 
